<svg xmlns="http://www.w3.org/2000/svg" viewBox="0 0 1536 1024" fill="none">
  <rect width="1536" height="1024" fill="#07070d"/>
  <defs>
    <linearGradient id="bg" x1="0" y1="0" x2="1536" y2="1024">
      <stop offset="0%" stop-color="#0d0d1a"/>
      <stop offset="50%" stop-color="#070710"/>
      <stop offset="100%" stop-color="#0a0508"/>
    </linearGradient>
    <linearGradient id="glow1" x1="0" y1="0" x2="1" y2="1">
      <stop offset="0%" stop-color="#D946EF" stop-opacity="0.08"/>
      <stop offset="100%" stop-color="#D946EF" stop-opacity="0"/>
    </linearGradient>
  </defs>
  <rect width="1536" height="1024" fill="url(#bg)"/>
  <circle cx="200" cy="200" r="350" fill="url(#glow1)"/>
  <circle cx="1300" cy="800" r="300" fill="#A855F7" opacity="0.04"/>

  <!-- Top bar -->
  <rect x="0" y="0" width="1536" height="56" fill="#0e0e16" stroke="#ffffff08" stroke-width="1"/>
  <rect x="20" y="16" width="24" height="24" rx="6" fill="#D946EF"/>
  <text x="28" y="33" fill="#ffffff" font-size="12" font-family="sans-serif" font-weight="700" text-anchor="middle">CRM</text>
  <text x="60" y="35" fill="#ffffff" font-size="15" font-family="sans-serif" font-weight="700" opacity="0.9">CRM Digital FTE Factory</text>
  <rect x="280" y="18" width="200" height="20" rx="10" fill="#D946EF15"/>
  <text x="380" y="33" fill="#D946EF" font-size="11" font-family="monospace" text-anchor="middle" font-weight="600">● 24/7 Autonomous</text>
  <rect x="500" y="18" width="160" height="20" rx="10" fill="#2DD4BF10"/>
  <text x="580" y="33" fill="#2DD4BF" font-size="11" font-family="monospace" text-anchor="middle">Zero Human Input</text>
  <text x="1400" y="35" fill="#ffffff" font-size="12" font-family="monospace" opacity="0.3">09:42:17 UTC</text>

  <!-- Left panel: Channels -->
  <rect x="24" y="80" width="320" height="460" rx="16" fill="#0e0e16" stroke="#ffffff06" stroke-width="1"/>
  <text x="44" y="110" fill="#ffffff" font-size="14" font-family="sans-serif" font-weight="600" opacity="0.9">Connected Channels</text>
  <text x="44" y="126" fill="#ffffff" font-size="11" font-family="sans-serif" opacity="0.3">Real-time multi-channel monitoring</text>

  <!-- Channel cards -->
  <rect x="44" y="148" width="280" height="52" rx="10" fill="#ffffff04"/>
  <rect x="56" y="160" width="28" height="28" rx="8" fill="#D946EF20"/>
  <text x="64" y="179" fill="#D946EF" font-size="14" font-family="sans-serif">📧</text>
  <text x="96" y="170" fill="#ffffff" font-size="13" font-family="sans-serif" font-weight="600" opacity="0.8">Gmail</text>
  <text x="96" y="186" fill="#2DD4BF" font-size="11" font-family="monospace">● Connected</text>
  <text x="260" y="180" fill="#ffffff" font-size="12" font-family="monospace" opacity="0.5">14 unread</text>

  <rect x="44" y="208" width="280" height="52" rx="10" fill="#ffffff04"/>
  <rect x="56" y="220" width="28" height="28" rx="8" fill="#2DD4BF20"/>
  <text x="64" y="239" fill="#2DD4BF" font-size="14" font-family="sans-serif">💬</text>
  <text x="96" y="230" fill="#ffffff" font-size="13" font-family="sans-serif" font-weight="600" opacity="0.8">WhatsApp</text>
  <text x="96" y="246" fill="#2DD4BF" font-size="11" font-family="monospace">● Connected</text>
  <text x="260" y="240" fill="#ffffff" font-size="12" font-family="monospace" opacity="0.5">23 unread</text>

  <rect x="44" y="268" width="280" height="52" rx="10" fill="#ffffff04"/>
  <rect x="56" y="280" width="28" height="28" rx="8" fill="#A855F720"/>
  <text x="64" y="299" fill="#A855F7" font-size="14" font-family="sans-serif">📋</text>
  <text x="96" y="290" fill="#ffffff" font-size="13" font-family="sans-serif" font-weight="600" opacity="0.8">ODOO CRM</text>
  <text x="96" y="306" fill="#2DD4BF" font-size="11" font-family="monospace">● Connected</text>
  <text x="260" y="300" fill="#ffffff" font-size="12" font-family="monospace" opacity="0.5">7 pending</text>

  <rect x="44" y="328" width="280" height="52" rx="10" fill="#ffffff04"/>
  <rect x="56" y="340" width="28" height="28" rx="8" fill="#ffffff15"/>
  <text x="66" y="359" fill="#ffffff" font-size="14" font-family="sans-serif">🔗</text>
  <text x="96" y="350" fill="#ffffff" font-size="13" font-family="sans-serif" font-weight="600" opacity="0.8">Webhooks</text>
  <text x="96" y="366" fill="#2DD4BF" font-size="11" font-family="monospace">● Active</text>
  <text x="260" y="360" fill="#ffffff" font-size="12" font-family="monospace" opacity="0.5">42 today</text>

  <!-- Channel stats -->
  <rect x="44" y="400" width="280" height="48" rx="10" fill="#ffffff04"/>
  <text x="56" y="424" fill="#ffffff" font-size="12" font-family="monospace" opacity="0.5">Total conversations today</text>
  <text x="280" y="424" fill="#D946EF" font-size="16" font-family="monospace" font-weight="700" text-anchor="end">86</text>
  <text x="290" y="436" fill="#2DD4BF" font-size="10" font-family="monospace">↑ 12% from yesterday</text>

  <!-- Middle: Main activity -->
  <rect x="364" y="80" width="580" height="460" rx="16" fill="#0e0e16" stroke="#ffffff06" stroke-width="1"/>
  
  <!-- Activity header -->
  <text x="384" y="110" fill="#ffffff" font-size="14" font-family="sans-serif" font-weight="600" opacity="0.9">Live Agent Activity</text>
  <text x="384" y="126" fill="#ffffff" font-size="11" font-family="sans-serif" opacity="0.3">Autonomous processing — no prompts needed</text>
  <rect x="790" y="100" width="134" height="26" rx="8" fill="#D946EF12"/>
  <text x="857" y="117" fill="#D946EF" font-size="11" font-family="monospace" text-anchor="middle">● Processing</text>

  <!-- Activity feed -->
  <rect x="384" y="148" width="540" height="40" rx="8" fill="#ffffff03"/>
  <circle cx="398" cy="168" r="4" fill="#2DD4BF"/>
  <text x="414" y="163" fill="#ffffff" font-size="11" font-family="monospace" opacity="0.7">[09:42] Gmail → Drafted reply to "Invoice #2304" — queued for review</text>
  <text x="414" y="179" fill="#ffffff" font-size="10" font-family="monospace" opacity="0.3">Processed: 2.3s | Confidence: 94%</text>

  <rect x="384" y="196" width="540" height="40" rx="8" fill="#ffffff03"/>
  <circle cx="398" cy="216" r="4" fill="#D946EF"/>
  <text x="414" y="211" fill="#ffffff" font-size="11" font-family="monospace" opacity="0.7">[09:38] WhatsApp → Customer query resolved: "Order status update"</text>
  <text x="414" y="227" fill="#ffffff" font-size="10" font-family="monospace" opacity="0.3">Processed: 1.8s | Sentiment: Positive</text>

  <rect x="384" y="244" width="540" height="40" rx="8" fill="#ffffff03"/>
  <circle cx="398" cy="264" r="4" fill="#A855F7"/>
  <text x="414" y="259" fill="#ffffff" font-size="11" font-family="monospace" opacity="0.7">[09:32] ODOO → New lead created: "Acme Corp — $12,500 deal"</text>
  <text x="414" y="275" fill="#ffffff" font-size="10" font-family="monospace" opacity="0.3">Enrichment complete | Assigned: auto-pilot</text>

  <rect x="384" y="292" width="540" height="40" rx="8" fill="#ffffff03"/>
  <circle cx="398" cy="312" r="4" fill="#2DD4BF"/>
  <text x="414" y="307" fill="#ffffff" font-size="11" font-family="monospace" opacity="0.7">[09:25] Webhook → Stripe payment confirmed — receipt sent to customer</text>
  <text x="414" y="323" fill="#ffffff" font-size="10" font-family="monospace" opacity="0.3">Amount: $249.00 | Auto-receipt: delivered</text>

  <rect x="384" y="340" width="540" height="40" rx="8" fill="#ffffff03"/>
  <circle cx="398" cy="360" r="4" fill="#2DD4BF"/>
  <text x="414" y="355" fill="#ffffff" font-size="11" font-family="monospace" opacity="0.7">[09:18] Gmail → 5 emails processed: 3 archived, 2 actioned</text>
  <text x="414" y="371" fill="#ffffff" font-size="10" font-family="monospace" opacity="0.3">Batch complete | Next sync: 09:48</text>

  <!-- Pipeline progress -->
  <rect x="384" y="400" width="540" height="120" rx="12" fill="#ffffff03"/>
  <text x="400" y="424" fill="#ffffff" font-size="12" font-family="sans-serif" font-weight="600" opacity="0.7">Pipeline — Email → CRM → Action</text>
  
  <rect x="400" y="440" width="120" height="6" rx="3" fill="#ffffff08"/>
  <rect x="400" y="440" width="114" height="6" rx="3" fill="#D946EF"/>
  <text x="460" y="462" fill="#D946EF" font-size="10" font-family="monospace" text-anchor="middle">1. Ingest</text>

  <rect x="560" y="440" width="120" height="6" rx="3" fill="#ffffff08"/>
  <rect x="560" y="440" width="108" height="6" rx="3" fill="#2DD4BF"/>
  <text x="620" y="462" fill="#2DD4BF" font-size="10" font-family="monospace" text-anchor="middle">2. Analyze</text>

  <rect x="720" y="440" width="120" height="6" rx="3" fill="#ffffff08"/>
  <rect x="720" y="440" width="96" height="6" rx="3" fill="#A855F7"/>
  <text x="780" y="462" fill="#A855F7" font-size="10" font-family="monospace" text-anchor="middle">3. Decide</text>

  <rect x="400" y="476" width="120" height="28" rx="8" fill="#D946EF15"/>
  <text x="460" y="495" fill="#D946EF" font-size="11" font-family="monospace" text-anchor="middle">42 emails</text>
  <rect x="560" y="476" width="120" height="28" rx="8" fill="#2DD4BF15"/>
  <text x="620" y="495" fill="#2DD4BF" font-size="11" font-family="monospace" text-anchor="middle">38 analyzed</text>
  <rect x="720" y="476" width="120" height="28" rx="8" fill="#A855F715"/>
  <text x="780" y="495" fill="#A855F7" font-size="11" font-family="monospace" text-anchor="middle">34 actioned</text>

  <!-- Right panel: Stats -->
  <rect x="964" y="80" width="320" height="460" rx="16" fill="#0e0e16" stroke="#ffffff06" stroke-width="1"/>
  <text x="984" y="110" fill="#ffffff" font-size="14" font-family="sans-serif" font-weight="600" opacity="0.9">System Overview</text>
  <text x="984" y="126" fill="#ffffff" font-size="11" font-family="sans-serif" opacity="0.3">24/7 autonomous operations</text>

  <rect x="984" y="148" width="280" height="80" rx="12" fill="#D946EF08"/>
  <text x="1004" y="174" fill="#ffffff" font-size="11" font-family="monospace" opacity="0.5">Hours saved this week</text>
  <text x="1248" y="174" fill="#D946EF" font-size="24" font-family="monospace" font-weight="700" text-anchor="end">42h</text>
  <text x="1004" y="200" fill="#2DD4BF" font-size="10" font-family="monospace">↑ 18% efficiency increase</text>

  <rect x="984" y="240" width="280" height="80" rx="12" fill="#2DD4BF08"/>
  <text x="1004" y="266" fill="#ffffff" font-size="11" font-family="monospace" opacity="0.5">Messages processed today</text>
  <text x="1248" y="266" fill="#2DD4BF" font-size="24" font-family="monospace" font-weight="700" text-anchor="end">247</text>
  <text x="1004" y="292" fill="#D946EF" font-size="10" font-family="monospace">97.3% auto-resolution rate</text>

  <rect x="984" y="332" width="280" height="80" rx="12" fill="#A855F708"/>
  <text x="1004" y="358" fill="#ffffff" font-size="11" font-family="monospace" opacity="0.5">Active integrations</text>
  <text x="1248" y="358" fill="#A855F7" font-size="24" font-family="monospace" font-weight="700" text-anchor="end">8</text>
  <text x="1004" y="384" fill="#ffffff" font-size="10" font-family="monospace" opacity="0.5">Gmail · WhatsApp · ODOO · Slack · Stripe · Notion · HubSpot · Discord</text>

  <!-- Tech stack -->
  <rect x="984" y="428" width="280" height="96" rx="12" fill="#ffffff03"/>
  <text x="1004" y="454" fill="#ffffff" font-size="12" font-family="sans-serif" font-weight="600" opacity="0.7">Tech Stack</text>
  <rect x="1004" y="468" width="76" height="24" rx="6" fill="#ffffff08"/>
  <text x="1042" y="485" fill="#ffffff" font-size="10" font-family="monospace" text-anchor="middle" opacity="0.6">Kafka</text>
  <rect x="1088" y="468" width="76" height="24" rx="6" fill="#ffffff08"/>
  <text x="1126" y="485" fill="#ffffff" font-size="10" font-family="monospace" text-anchor="middle" opacity="0.6">Docker</text>
  <rect x="1172" y="468" width="76" height="24" rx="6" fill="#ffffff08"/>
  <text x="1210" y="485" fill="#ffffff" font-size="10" font-family="monospace" text-anchor="middle" opacity="0.6">FastAPI</text>
  <rect x="1004" y="496" width="76" height="24" rx="6" fill="#ffffff08"/>
  <text x="1042" y="513" fill="#ffffff" font-size="10" font-family="monospace" text-anchor="middle" opacity="0.6">PostgreSQL</text>
  <rect x="1088" y="496" width="76" height="24" rx="6" fill="#ffffff08"/>
  <text x="1126" y="513" fill="#ffffff" font-size="10" font-family="monospace" text-anchor="middle" opacity="0.6">OpenAI SDK</text>
  <rect x="1172" y="496" width="76" height="24" rx="6" fill="#ffffff08"/>
  <text x="1210" y="513" fill="#ffffff" font-size="10" font-family="monospace" text-anchor="middle" opacity="0.6">MCP</text>

  <!-- Bottom: Terminal -->
  <rect x="24" y="560" width="1260" height="120" rx="12" fill="#050508" stroke="#ffffff06" stroke-width="1"/>
  <rect x="24" y="560" width="1260" height="28" rx="12" fill="#0a0a12"/>
  <rect x="24" y="576" width="1260" height="12" fill="#0a0a12"/>
  <circle cx="44" cy="574" r="5" fill="#D946EF" opacity="0.5"/>
  <circle cx="60" cy="574" r="5" fill="#2DD4BF" opacity="0.5"/>
  <circle cx="76" cy="574" r="5" fill="#A855F7" opacity="0.5"/>
  <text x="100" y="578" fill="#ffffff" font-size="10" font-family="monospace" opacity="0.3">crm-agent — 24/7 autonomous mode</text>

  <text x="44" y="608" fill="#2DD4BF" font-size="12" font-family="monospace">$ ./crm-agent status</text>
  <text x="44" y="630" fill="#ffffff" font-size="12" font-family="monospace" opacity="0.8">✓ All channels connected | Processing 86 conversations today</text>
  <text x="44" y="652" fill="#D946EF" font-size="12" font-family="monospace">⟩ Zero human inputs required | 24/7 autonomous operation</text>
  <text x="44" y="674" fill="#A855F7" font-size="12" font-family="monospace">⟩ Next cycle: 09:45 | Uptime: 14d 6h 32m | 98.7% health</text>

  <!-- Bottom right: Mini metrics -->
  <rect x="1304" y="560" width="208" height="120" rx="12" fill="#0e0e16" stroke="#ffffff06" stroke-width="1"/>
  <text x="1324" y="586" fill="#ffffff" font-size="10" font-family="monospace" opacity="0.5">CPU</text>
  <rect x="1360" y="580" width="80" height="4" rx="2" fill="#ffffff08"/>
  <rect x="1360" y="580" width="48" height="4" rx="2" fill="#2DD4BF"/>
  <text x="1324" y="606" fill="#ffffff" font-size="10" font-family="monospace" opacity="0.5">MEM</text>
  <rect x="1360" y="600" width="80" height="4" rx="2" fill="#ffffff08"/>
  <rect x="1360" y="600" width="32" height="4" rx="2" fill="#D946EF"/>
  <text x="1324" y="626" fill="#ffffff" font-size="10" font-family="monospace" opacity="0.5">DISK</text>
  <rect x="1360" y="620" width="80" height="4" rx="2" fill="#ffffff08"/>
  <rect x="1360" y="620" width="56" height="4" rx="2" fill="#A855F7"/>
  <text x="1324" y="650" fill="#ffffff" font-size="10" font-family="monospace" opacity="0.5">NET</text>
  <text x="1380" y="650" fill="#2DD4BF" font-size="10" font-family="monospace">2.4 Mbps ↓ / 1.2 Mbps ↑</text>

  <!-- Footer -->
  <rect x="24" y="700" width="1488" height="1" fill="#ffffff06"/>
  <text x="24" y="720" fill="#ffffff" font-size="10" font-family="monospace" opacity="0.2">CRM Digital FTE Factory — GIAIC Hackathon 5 Advanced | 24/7 Autonomous Agent</text>
</svg>